<svg width="106" height="38" viewBox="0 0 106 38" fill="none" xmlns="http://www.w3.org/2000/svg">
<path d="M87 29V9" stroke="#F8F3DF" stroke-width="2"/>
<path d="M77 19H97" stroke="#F8F3DF" stroke-width="2"/>
<path d="M9 19H29" stroke="#F8F3DF" stroke-width="2"/>
<path d="M19 37C28.9411 37 37 28.9411 37 19C37 9.05887 28.9411 1 19 1C9.05887 1 1 9.05887 1 19C1 28.9411 9.05887 37 19 37Z" stroke="#F8F3DF" stroke-width="2"/>
<path d="M87 37C96.9411 37 105 28.9411 105 19C105 9.05887 96.9411 1 87 1C77.0589 1 69 9.05887 69 19C69 28.9411 77.0589 37 87 37Z" stroke="#F8F3DF" stroke-width="2"/>
<path d="M56.9736 24H48.2021V22.2598L52.3418 17.8477C52.9102 17.2266 53.3291 16.6846 53.5986 16.2217C53.874 15.7588 54.0117 15.3193 54.0117 14.9033C54.0117 14.335 53.8682 13.8896 53.5811 13.5674C53.2939 13.2393 52.8838 13.0752 52.3506 13.0752C51.7764 13.0752 51.3223 13.2744 50.9883 13.6729C50.6602 14.0654 50.4961 14.584 50.4961 15.2285H47.9473C47.9473 14.4492 48.1318 13.7373 48.501 13.0928C48.876 12.4482 49.4033 11.9443 50.083 11.5811C50.7627 11.2119 51.5332 11.0273 52.3945 11.0273C53.7129 11.0273 54.7354 11.3438 55.4619 11.9766C56.1943 12.6094 56.5605 13.5029 56.5605 14.6572C56.5605 15.29 56.3965 15.9346 56.0684 16.5908C55.7402 17.2471 55.1777 18.0117 54.3809 18.8848L51.4717 21.9521H56.9736V24Z" fill="#FCFEF2"/>
</svg>
